<mxfile host="app.diagrams.net" agent="Mozilla/5.0 (Windows NT 10.0; Win64; x64; rv:130.0) Gecko/20100101 Firefox/130.0" version="24.7.16">
  <diagram id="C5RBs43oDa-KdzZeNtuy" name="Page-1">
    <mxGraphModel dx="1050" dy="511" grid="1" gridSize="10" guides="1" tooltips="1" connect="1" arrows="1" fold="1" page="1" pageScale="1" pageWidth="827" pageHeight="1169" math="0" shadow="0">
      <root>
        <mxCell id="WIyWlLk6GJQsqaUBKTNV-0" />
        <mxCell id="WIyWlLk6GJQsqaUBKTNV-1" parent="WIyWlLk6GJQsqaUBKTNV-0" />
        <mxCell id="-fomPIhO2S1B78a0Ld2a-17" style="edgeStyle=orthogonalEdgeStyle;rounded=0;orthogonalLoop=1;jettySize=auto;html=1;exitX=1;exitY=0.5;exitDx=0;exitDy=0;entryX=0;entryY=0.5;entryDx=0;entryDy=0;" parent="WIyWlLk6GJQsqaUBKTNV-1" source="-fomPIhO2S1B78a0Ld2a-0" target="-fomPIhO2S1B78a0Ld2a-5" edge="1">
          <mxGeometry relative="1" as="geometry" />
        </mxCell>
        <mxCell id="-fomPIhO2S1B78a0Ld2a-0" value="agentd" style="rounded=0;whiteSpace=wrap;html=1;" parent="WIyWlLk6GJQsqaUBKTNV-1" vertex="1">
          <mxGeometry x="400" y="152" width="50" height="30" as="geometry" />
        </mxCell>
        <mxCell id="-fomPIhO2S1B78a0Ld2a-21" style="edgeStyle=orthogonalEdgeStyle;rounded=0;orthogonalLoop=1;jettySize=auto;html=1;exitX=1;exitY=0.5;exitDx=0;exitDy=0;entryX=0;entryY=0.5;entryDx=0;entryDy=0;" parent="WIyWlLk6GJQsqaUBKTNV-1" source="-fomPIhO2S1B78a0Ld2a-5" target="-fomPIhO2S1B78a0Ld2a-20" edge="1">
          <mxGeometry relative="1" as="geometry" />
        </mxCell>
        <mxCell id="-fomPIhO2S1B78a0Ld2a-38" style="edgeStyle=orthogonalEdgeStyle;rounded=0;orthogonalLoop=1;jettySize=auto;html=1;exitX=0.5;exitY=0;exitDx=0;exitDy=0;entryX=0.583;entryY=0.763;entryDx=0;entryDy=0;entryPerimeter=0;" parent="WIyWlLk6GJQsqaUBKTNV-1" source="-fomPIhO2S1B78a0Ld2a-5" target="-fomPIhO2S1B78a0Ld2a-36" edge="1">
          <mxGeometry relative="1" as="geometry" />
        </mxCell>
        <mxCell id="-fomPIhO2S1B78a0Ld2a-5" value="agent" style="rounded=0;whiteSpace=wrap;html=1;" parent="WIyWlLk6GJQsqaUBKTNV-1" vertex="1">
          <mxGeometry x="560" y="152" width="50" height="30" as="geometry" />
        </mxCell>
        <mxCell id="-fomPIhO2S1B78a0Ld2a-24" style="edgeStyle=orthogonalEdgeStyle;rounded=0;orthogonalLoop=1;jettySize=auto;html=1;exitX=1;exitY=0.5;exitDx=0;exitDy=0;entryX=0;entryY=0.5;entryDx=0;entryDy=0;" parent="WIyWlLk6GJQsqaUBKTNV-1" source="-fomPIhO2S1B78a0Ld2a-10" target="-fomPIhO2S1B78a0Ld2a-23" edge="1">
          <mxGeometry relative="1" as="geometry" />
        </mxCell>
        <mxCell id="-fomPIhO2S1B78a0Ld2a-10" value="agentd" style="rounded=0;whiteSpace=wrap;html=1;" parent="WIyWlLk6GJQsqaUBKTNV-1" vertex="1">
          <mxGeometry x="400" y="280" width="50" height="30" as="geometry" />
        </mxCell>
        <mxCell id="-fomPIhO2S1B78a0Ld2a-18" value="--mode pgpool" style="text;html=1;align=center;verticalAlign=middle;resizable=0;points=[];autosize=1;strokeColor=none;fillColor=none;" parent="WIyWlLk6GJQsqaUBKTNV-1" vertex="1">
          <mxGeometry x="450" y="140" width="100" height="30" as="geometry" />
        </mxCell>
        <mxCell id="-fomPIhO2S1B78a0Ld2a-20" value="pgpool2" style="rounded=0;whiteSpace=wrap;html=1;" parent="WIyWlLk6GJQsqaUBKTNV-1" vertex="1">
          <mxGeometry x="720" y="152" width="50" height="30" as="geometry" />
        </mxCell>
        <mxCell id="-fomPIhO2S1B78a0Ld2a-22" value="--mode pgpool" style="text;html=1;align=center;verticalAlign=middle;resizable=0;points=[];autosize=1;strokeColor=none;fillColor=none;" parent="WIyWlLk6GJQsqaUBKTNV-1" vertex="1">
          <mxGeometry x="610" y="140" width="100" height="30" as="geometry" />
        </mxCell>
        <mxCell id="-fomPIhO2S1B78a0Ld2a-28" style="edgeStyle=orthogonalEdgeStyle;rounded=0;orthogonalLoop=1;jettySize=auto;html=1;exitX=1;exitY=0.5;exitDx=0;exitDy=0;entryX=0;entryY=0.5;entryDx=0;entryDy=0;" parent="WIyWlLk6GJQsqaUBKTNV-1" source="-fomPIhO2S1B78a0Ld2a-23" target="-fomPIhO2S1B78a0Ld2a-27" edge="1">
          <mxGeometry relative="1" as="geometry" />
        </mxCell>
        <mxCell id="-fomPIhO2S1B78a0Ld2a-40" style="edgeStyle=orthogonalEdgeStyle;rounded=0;orthogonalLoop=1;jettySize=auto;html=1;exitX=0.5;exitY=0;exitDx=0;exitDy=0;" parent="WIyWlLk6GJQsqaUBKTNV-1" source="-fomPIhO2S1B78a0Ld2a-23" target="-fomPIhO2S1B78a0Ld2a-39" edge="1">
          <mxGeometry relative="1" as="geometry" />
        </mxCell>
        <mxCell id="-fomPIhO2S1B78a0Ld2a-23" value="agent" style="rounded=0;whiteSpace=wrap;html=1;" parent="WIyWlLk6GJQsqaUBKTNV-1" vertex="1">
          <mxGeometry x="560" y="280" width="50" height="30" as="geometry" />
        </mxCell>
        <mxCell id="-fomPIhO2S1B78a0Ld2a-25" value="&lt;div&gt;--mode pg&lt;/div&gt;" style="text;html=1;align=center;verticalAlign=middle;resizable=0;points=[];autosize=1;strokeColor=none;fillColor=none;" parent="WIyWlLk6GJQsqaUBKTNV-1" vertex="1">
          <mxGeometry x="460" y="260" width="80" height="30" as="geometry" />
        </mxCell>
        <mxCell id="-fomPIhO2S1B78a0Ld2a-26" value="或不带参数" style="text;html=1;align=center;verticalAlign=middle;resizable=0;points=[];autosize=1;strokeColor=none;fillColor=none;" parent="WIyWlLk6GJQsqaUBKTNV-1" vertex="1">
          <mxGeometry x="460" y="290" width="80" height="30" as="geometry" />
        </mxCell>
        <mxCell id="-fomPIhO2S1B78a0Ld2a-27" value="postgres" style="rounded=0;whiteSpace=wrap;html=1;" parent="WIyWlLk6GJQsqaUBKTNV-1" vertex="1">
          <mxGeometry x="720" y="280" width="50" height="30" as="geometry" />
        </mxCell>
        <mxCell id="-fomPIhO2S1B78a0Ld2a-29" value="&lt;div&gt;--mode pg&lt;/div&gt;" style="text;html=1;align=center;verticalAlign=middle;resizable=0;points=[];autosize=1;strokeColor=none;fillColor=none;" parent="WIyWlLk6GJQsqaUBKTNV-1" vertex="1">
          <mxGeometry x="630" y="260" width="80" height="30" as="geometry" />
        </mxCell>
        <mxCell id="-fomPIhO2S1B78a0Ld2a-30" value="或不带参数" style="text;html=1;align=center;verticalAlign=middle;resizable=0;points=[];autosize=1;strokeColor=none;fillColor=none;" parent="WIyWlLk6GJQsqaUBKTNV-1" vertex="1">
          <mxGeometry x="630" y="290" width="80" height="30" as="geometry" />
        </mxCell>
        <mxCell id="-fomPIhO2S1B78a0Ld2a-36" value="conf/pgagentconfig.yml" style="shape=document;whiteSpace=wrap;html=1;boundedLbl=1;" parent="WIyWlLk6GJQsqaUBKTNV-1" vertex="1">
          <mxGeometry x="585" y="80" width="150" height="30" as="geometry" />
        </mxCell>
        <mxCell id="-fomPIhO2S1B78a0Ld2a-39" value="conf/pgpoolconfig.yml" style="shape=document;whiteSpace=wrap;html=1;boundedLbl=1;" parent="WIyWlLk6GJQsqaUBKTNV-1" vertex="1">
          <mxGeometry x="585" y="210" width="150" height="30" as="geometry" />
        </mxCell>
        <mxCell id="-fomPIhO2S1B78a0Ld2a-45" style="edgeStyle=orthogonalEdgeStyle;rounded=0;orthogonalLoop=1;jettySize=auto;html=1;exitX=0.5;exitY=0;exitDx=0;exitDy=0;entryX=0;entryY=0.5;entryDx=0;entryDy=0;" parent="WIyWlLk6GJQsqaUBKTNV-1" source="-fomPIhO2S1B78a0Ld2a-43" target="-fomPIhO2S1B78a0Ld2a-0" edge="1">
          <mxGeometry relative="1" as="geometry" />
        </mxCell>
        <mxCell id="-fomPIhO2S1B78a0Ld2a-47" style="edgeStyle=orthogonalEdgeStyle;rounded=0;orthogonalLoop=1;jettySize=auto;html=1;exitX=0.5;exitY=1;exitDx=0;exitDy=0;entryX=0;entryY=0.5;entryDx=0;entryDy=0;" parent="WIyWlLk6GJQsqaUBKTNV-1" source="-fomPIhO2S1B78a0Ld2a-43" target="-fomPIhO2S1B78a0Ld2a-10" edge="1">
          <mxGeometry relative="1" as="geometry" />
        </mxCell>
        <mxCell id="-fomPIhO2S1B78a0Ld2a-43" value="start.sh" style="rounded=0;whiteSpace=wrap;html=1;" parent="WIyWlLk6GJQsqaUBKTNV-1" vertex="1">
          <mxGeometry x="300" y="220" width="50" height="30" as="geometry" />
        </mxCell>
        <mxCell id="-fomPIhO2S1B78a0Ld2a-46" value="带参数 pgpool" style="text;html=1;strokeColor=none;fillColor=none;align=center;verticalAlign=middle;whiteSpace=wrap;rounded=0;" parent="WIyWlLk6GJQsqaUBKTNV-1" vertex="1">
          <mxGeometry x="300" y="140" width="90" height="30" as="geometry" />
        </mxCell>
        <mxCell id="-fomPIhO2S1B78a0Ld2a-48" value="不带参数 " style="text;html=1;strokeColor=none;fillColor=none;align=center;verticalAlign=middle;whiteSpace=wrap;rounded=0;" parent="WIyWlLk6GJQsqaUBKTNV-1" vertex="1">
          <mxGeometry x="300" y="290" width="90" height="30" as="geometry" />
        </mxCell>
        <mxCell id="-fomPIhO2S1B78a0Ld2a-52" style="edgeStyle=orthogonalEdgeStyle;rounded=0;orthogonalLoop=1;jettySize=auto;html=1;exitX=0.5;exitY=0;exitDx=0;exitDy=0;" parent="WIyWlLk6GJQsqaUBKTNV-1" source="-fomPIhO2S1B78a0Ld2a-49" edge="1">
          <mxGeometry relative="1" as="geometry">
            <mxPoint x="520" y="380" as="targetPoint" />
            <Array as="points">
              <mxPoint x="325" y="380" />
            </Array>
          </mxGeometry>
        </mxCell>
        <mxCell id="-fomPIhO2S1B78a0Ld2a-58" style="edgeStyle=orthogonalEdgeStyle;rounded=0;orthogonalLoop=1;jettySize=auto;html=1;exitX=0.5;exitY=1;exitDx=0;exitDy=0;entryX=0;entryY=0.5;entryDx=0;entryDy=0;" parent="WIyWlLk6GJQsqaUBKTNV-1" source="-fomPIhO2S1B78a0Ld2a-49" target="-fomPIhO2S1B78a0Ld2a-57" edge="1">
          <mxGeometry relative="1" as="geometry" />
        </mxCell>
        <mxCell id="-fomPIhO2S1B78a0Ld2a-49" value="stop.sh" style="rounded=0;whiteSpace=wrap;html=1;" parent="WIyWlLk6GJQsqaUBKTNV-1" vertex="1">
          <mxGeometry x="300" y="400" width="50" height="30" as="geometry" />
        </mxCell>
        <mxCell id="-fomPIhO2S1B78a0Ld2a-54" value="&lt;div&gt;停agentd和agent&lt;/div&gt;&lt;div&gt;（pgagentd和pgagent）&lt;/div&gt;" style="rounded=1;whiteSpace=wrap;html=1;" parent="WIyWlLk6GJQsqaUBKTNV-1" vertex="1">
          <mxGeometry x="520" y="360" width="140" height="30" as="geometry" />
        </mxCell>
        <mxCell id="-fomPIhO2S1B78a0Ld2a-55" style="edgeStyle=orthogonalEdgeStyle;rounded=0;orthogonalLoop=1;jettySize=auto;html=1;exitX=0.5;exitY=1;exitDx=0;exitDy=0;" parent="WIyWlLk6GJQsqaUBKTNV-1" source="-fomPIhO2S1B78a0Ld2a-54" target="-fomPIhO2S1B78a0Ld2a-54" edge="1">
          <mxGeometry relative="1" as="geometry" />
        </mxCell>
        <mxCell id="-fomPIhO2S1B78a0Ld2a-56" value="带2个参数： pg&amp;nbsp; agentd" style="text;html=1;align=center;verticalAlign=middle;resizable=0;points=[];autosize=1;strokeColor=none;fillColor=none;" parent="WIyWlLk6GJQsqaUBKTNV-1" vertex="1">
          <mxGeometry x="330" y="350" width="150" height="30" as="geometry" />
        </mxCell>
        <mxCell id="-fomPIhO2S1B78a0Ld2a-57" value="&lt;div&gt;停agentd和agent&lt;/div&gt;&lt;div&gt;（pgpoolagentd和pgpoolagent）&lt;br&gt;&lt;/div&gt;" style="rounded=1;whiteSpace=wrap;html=1;" parent="WIyWlLk6GJQsqaUBKTNV-1" vertex="1">
          <mxGeometry x="520" y="450" width="180" height="30" as="geometry" />
        </mxCell>
        <mxCell id="-fomPIhO2S1B78a0Ld2a-59" value="带2个参数： pgpool&amp;nbsp; agentd" style="text;html=1;align=center;verticalAlign=middle;resizable=0;points=[];autosize=1;strokeColor=none;fillColor=none;" parent="WIyWlLk6GJQsqaUBKTNV-1" vertex="1">
          <mxGeometry x="329" y="430" width="170" height="30" as="geometry" />
        </mxCell>
      </root>
    </mxGraphModel>
  </diagram>
</mxfile>
